# xmcd
#
# Track frame offsets:
#	150
#	18280
#	33248
#	53311
#	71403
#	88254
#	107738
#	121427
#	138899
#	160443
#	178309
#	198555
#	211509
#	228466
#	257064
#	271460
#
# Disc length: 3818 seconds
#
# Revision: 0
# Processed by: cddbd v1.5.2PL0 Copyright (c) Steve Scherf et al.
# Submitted via: EZCDAudioConverter 2.1.7.1
#
DISCID=dc0ee810
DTITLE=Link Wray - 3-Track Shack 1/2
DYEAR=1900
DGENRE=
TTITLE0=La De Da
TTITLE1=Take Me Home Jesus
TTITLE2=Juke Box Mama
TTITLE3=Rise And Fall Of Jimmy Stokes
TTITLE4=Fallin' Rain
TTITLE5=Fire And Brimstone
TTITLE6=Ice People
TTITLE7=God Out West
TTITLE8=Crowbar
TTITLE9=Black River Swamp
TTITLE10=Tail Dragger
TTITLE11=Walkin' In The Arizona Sun
TTITLE12=Scorpio Woman
TTITLE13=The Coca-Cola Sign Blinds My Eyes
TTITLE14=All I Want To Say
TTITLE15=All Because Of A Woman
EXTD=
EXTT0=
EXTT1=
EXTT2=
EXTT3=
EXTT4=
EXTT5=
EXTT6=
EXTT7=
EXTT8=
EXTT9=
EXTT10=
EXTT11=
EXTT12=
EXTT13=
EXTT14=
EXTT15=
PLAYORDER=
